<svg width="20" height="20" viewBox="0 0 20 20" fill="none" xmlns="http://www.w3.org/2000/svg">
<mask id="mask0_2_2644" style="mask-type:alpha" maskUnits="userSpaceOnUse" x="0" y="0" width="20" height="20">
<path d="M17.1412 5.22756C17.1393 4.5787 16.8807 3.95695 16.4219 3.49813C15.9631 3.03932 15.3413 2.78071 14.6925 2.77881H4.89748C4.24862 2.78071 3.62687 3.03932 3.16806 3.49813C2.70924 3.95695 2.45063 4.5787 2.44873 5.22756V16.8591C2.44873 17.0215 2.51323 17.1772 2.62804 17.292C2.74284 17.4068 2.89856 17.4713 3.06092 17.4713H4.28529C4.44766 17.4713 4.60337 17.4068 4.71817 17.292C4.83298 17.1772 4.89748 17.0215 4.89748 16.8591V16.2469H14.6925V16.8591C14.6925 17.0215 14.757 17.1772 14.8718 17.292C14.9866 17.4068 15.1423 17.4713 15.3047 17.4713H16.529C16.6914 17.4713 16.8471 17.4068 16.9619 17.292C17.0767 17.1772 17.1412 17.0215 17.1412 16.8591V5.22756ZM7.34623 4.30928C7.34623 4.2281 7.37848 4.15024 7.43588 4.09284C7.49329 4.03543 7.57114 4.00318 7.65232 4.00318H11.9376C12.0188 4.00318 12.0967 4.03543 12.1541 4.09284C12.2115 4.15024 12.2437 4.2281 12.2437 4.30928V4.92146C12.2437 5.00265 12.2115 5.0805 12.1541 5.13791C12.0967 5.19531 12.0188 5.22756 11.9376 5.22756H7.65232C7.57114 5.22756 7.49329 5.19531 7.43588 5.13791C7.37848 5.0805 7.34623 5.00265 7.34623 4.92146V4.30928ZM6.12186 14.1043C6.12186 14.1855 6.08961 14.2633 6.0322 14.3207C5.9748 14.3781 5.89694 14.4104 5.81576 14.4104H3.9792C3.89802 14.4104 3.82016 14.3781 3.76276 14.3207C3.70535 14.2633 3.67311 14.1855 3.67311 14.1043V13.4921C3.67311 13.4109 3.70535 13.3331 3.76276 13.2756C3.82016 13.2182 3.89802 13.186 3.9792 13.186H5.81576C5.89694 13.186 5.9748 13.2182 6.0322 13.2756C6.08961 13.3331 6.12186 13.4109 6.12186 13.4921V14.1043ZM15.9169 14.1043C15.9169 14.1855 15.8846 14.2633 15.8272 14.3207C15.7698 14.3781 15.6919 14.4104 15.6108 14.4104H13.7742C13.693 14.4104 13.6152 14.3781 13.5578 14.3207C13.5004 14.2633 13.4681 14.1855 13.4681 14.1043V13.4921C13.4681 13.4109 13.5004 13.3331 13.5578 13.2756C13.6152 13.2182 13.693 13.186 13.7742 13.186H15.6108C15.6919 13.186 15.7698 13.2182 15.8272 13.2756C15.8846 13.3331 15.9169 13.4109 15.9169 13.4921V14.1043ZM15.9169 10.4312C15.9115 10.6142 15.8585 10.7926 15.763 10.9489C15.6675 11.1051 15.5329 11.2337 15.3724 11.3219C13.5969 12.0132 11.6991 12.335 9.79494 12.2677C7.89083 12.335 5.99301 12.0132 4.21751 11.3219C4.05708 11.2337 3.92246 11.1051 3.82698 10.9489C3.7315 10.7926 3.67846 10.6142 3.67311 10.4312V7.06412C3.67311 6.90176 3.7376 6.74605 3.85241 6.63124C3.96722 6.51643 4.12293 6.45193 4.28529 6.45193H15.3047C15.467 6.45193 15.6227 6.51643 15.7376 6.63124C15.8524 6.74605 15.9169 6.90176 15.9169 7.06412V10.4312Z" fill="black"/>
</mask>
<g mask="url(#mask0_2_2644)">
<rect y="0.330078" width="19.59" height="19.59" fill="#68C6E8"/>
</g>
</svg>
