<svg width="21" height="21" viewBox="0 0 21 21" fill="none" xmlns="http://www.w3.org/2000/svg">
<mask id="mask0_2_2632" style="mask-type:alpha" maskUnits="userSpaceOnUse" x="0" y="0" width="21" height="21">
<path d="M13.826 5.75338V2.99854L16.8869 6.05947H14.1321C14.0509 6.05947 13.9731 6.02722 13.9156 5.96982C13.8582 5.91242 13.826 5.83456 13.826 5.75338ZM16.8869 7.58994V17.0788C16.8869 17.2412 16.8224 17.3969 16.7076 17.5117C16.5928 17.6265 16.4371 17.691 16.2747 17.691H5.86756C5.7052 17.691 5.54948 17.6265 5.43468 17.5117C5.31987 17.3969 5.25537 17.2412 5.25537 17.0788V3.61072C5.25537 3.44836 5.31987 3.29265 5.43468 3.17784C5.54948 3.06303 5.7052 2.99854 5.86756 2.99854H12.2955C12.3767 2.99854 12.4546 3.03078 12.512 3.08819C12.5694 3.14559 12.6016 3.22345 12.6016 3.30463V6.67166C12.6016 6.83402 12.6661 6.98973 12.7809 7.10454C12.8957 7.21935 13.0514 7.28385 13.2138 7.28385H16.5808C16.662 7.28385 16.7399 7.3161 16.7973 7.3735C16.8547 7.4309 16.8869 7.50876 16.8869 7.58994ZM11.3772 14.324C11.3772 14.2428 11.345 14.165 11.2876 14.1076C11.2302 14.0502 11.1523 14.0179 11.0712 14.0179H7.39803C7.31685 14.0179 7.23899 14.0502 7.18159 14.1076C7.12418 14.165 7.09193 14.2428 7.09193 14.324V14.9362C7.09193 15.0174 7.12418 15.0952 7.18159 15.1526C7.23899 15.21 7.31685 15.2423 7.39803 15.2423H11.0712C11.1523 15.2423 11.2302 15.21 11.2876 15.1526C11.345 15.0952 11.3772 15.0174 11.3772 14.9362V14.324ZM15.0504 11.8753C15.0504 11.7941 15.0181 11.7162 14.9607 11.6588C14.9033 11.6014 14.8255 11.5692 14.7443 11.5692H7.39803C7.31685 11.5692 7.23899 11.6014 7.18159 11.6588C7.12418 11.7162 7.09193 11.7941 7.09193 11.8753V12.4874C7.09193 12.5686 7.12418 12.6465 7.18159 12.7039C7.23899 12.7613 7.31685 12.7935 7.39803 12.7935H14.7443C14.8255 12.7935 14.9033 12.7613 14.9607 12.7039C15.0181 12.6465 15.0504 12.5686 15.0504 12.4874V11.8753ZM15.0504 9.4265C15.0504 9.34532 15.0181 9.26747 14.9607 9.21006C14.9033 9.15266 14.8255 9.12041 14.7443 9.12041H7.39803C7.31685 9.12041 7.23899 9.15266 7.18159 9.21006C7.12418 9.26747 7.09193 9.34532 7.09193 9.4265V10.0387C7.09193 10.1199 7.12418 10.1977 7.18159 10.2551C7.23899 10.3125 7.31685 10.3448 7.39803 10.3448H14.7443C14.8255 10.3448 14.9033 10.3125 14.9607 10.2551C15.0181 10.1977 15.0504 10.1199 15.0504 10.0387V9.4265Z" fill="black"/>
</mask>
<g mask="url(#mask0_2_2632)">
<rect x="0.969971" y="0.549805" width="19.59" height="19.59" fill="#68C6E8"/>
</g>
</svg>
