<svg width="24" height="25" viewBox="0 0 24 25" fill="none" xmlns="http://www.w3.org/2000/svg">
<path d="M20.3536 17.5435C20.5488 17.3482 20.5488 17.0316 20.3536 16.8363L17.1716 13.6544C16.9763 13.4591 16.6597 13.4591 16.4645 13.6544C16.2692 13.8496 16.2692 14.1662 16.4645 14.3615L19.2929 17.1899L16.4645 20.0183C16.2692 20.2136 16.2692 20.5302 16.4645 20.7254C16.6597 20.9207 16.9763 20.9207 17.1716 20.7254L20.3536 17.5435ZM4 17.6899H20V16.6899H4V17.6899Z" fill="#F2F2F2"/>
<path d="M3.64645 8.54347C3.45119 8.34821 3.45119 8.03163 3.64645 7.83637L6.82843 4.65439C7.02369 4.45912 7.34027 4.45912 7.53553 4.65439C7.7308 4.84965 7.7308 5.16623 7.53553 5.36149L4.70711 8.18992L7.53553 11.0183C7.7308 11.2136 7.7308 11.5302 7.53553 11.7254C7.34027 11.9207 7.02369 11.9207 6.82843 11.7254L3.64645 8.54347ZM20 8.68992H4V7.68992H20V8.68992Z" fill="#F2F2F2"/>
</svg>
