<svg width="21" height="22" viewBox="0 0 21 22" fill="none" xmlns="http://www.w3.org/2000/svg">
<mask id="mask0_2_576" style="mask-type:alpha" maskUnits="userSpaceOnUse" x="0" y="0" width="21" height="21">
<path d="M10.8112 2.81128C10.0834 2.81127 9.36269 2.95462 8.69028 3.23313C8.01787 3.51165 7.40691 3.91988 6.89228 4.43451C6.37764 4.94915 5.96941 5.56011 5.6909 6.23252C5.41238 6.90492 5.26903 7.6256 5.26904 8.35341C5.26904 12.0482 9.43075 16.4065 10.2949 17.3633C10.3605 17.4348 10.4403 17.4919 10.5292 17.531C10.618 17.5701 10.7141 17.5903 10.8112 17.5903C10.9083 17.5903 11.0043 17.5701 11.0932 17.531C11.1821 17.4919 11.2618 17.4348 11.3275 17.3633C12.1916 16.4065 16.3533 12.0482 16.3533 8.35341C16.3533 7.6256 16.21 6.90492 15.9314 6.23252C15.6529 5.56011 15.2447 4.94915 14.7301 4.43451C14.2154 3.91988 13.6045 3.51165 12.9321 3.23313C12.2597 2.95462 11.539 2.81127 10.8112 2.81128ZM10.8112 11.4324C10.2022 11.4324 9.60692 11.2518 9.10059 10.9135C8.59426 10.5751 8.19962 10.0943 7.96658 9.53167C7.73354 8.96907 7.67257 8.34999 7.79137 7.75273C7.91017 7.15547 8.20342 6.60685 8.63402 6.17625C9.06462 5.74565 9.61324 5.45241 10.2105 5.33361C10.8078 5.21481 11.4268 5.27578 11.9894 5.50882C12.552 5.74186 13.0329 6.1365 13.3712 6.64283C13.7096 7.14916 13.8901 7.74445 13.8901 8.35341C13.8901 9.16999 13.5657 9.95312 12.9883 10.5305C12.4109 11.1079 11.6278 11.4323 10.8112 11.4324Z" fill="black"/>
</mask>
<g mask="url(#mask0_2_576)">
<rect x="0.958466" y="0.348145" width="19.7053" height="19.7053" fill="#68C6E8"/>
</g>
<path d="M0.958527 21.5623H2.43643V20.5564H0.958527V21.5623ZM4.40696 21.5623H7.36276V20.5564H4.40696V21.5623ZM9.3333 21.5623H12.2891V20.5564H9.3333V21.5623ZM14.2596 21.5623H17.2154V20.5564H14.2596V21.5623ZM19.186 21.5623H20.6639V20.5564H19.186V21.5623ZM0.958527 22.0652H2.43643V20.0535H0.958527V22.0652ZM4.40696 22.0652H7.36276V20.0535H4.40696V22.0652ZM9.3333 22.0652H12.2891V20.0535H9.3333V22.0652ZM14.2596 22.0652H17.2154V20.0535H14.2596V22.0652ZM19.186 22.0652H20.6639V20.0535H19.186V22.0652Z" fill="#68C6E8" mask="url(#path-1-inside-1_2_576)"/>
</svg>
