<svg width="17" height="17" viewBox="0 0 17 17" fill="none" xmlns="http://www.w3.org/2000/svg">
<g clip-path="url(#clip0_2_606)">
<path d="M11.7434 0.526855H5.70806C2.93038 0.526855 0.678619 2.77861 0.678619 5.55629V11.5916C0.678619 14.3693 2.93038 16.6211 5.70806 16.6211H11.7434C14.5211 16.6211 16.7728 14.3693 16.7728 11.5916V5.55629C16.7728 2.77861 14.5211 0.526855 11.7434 0.526855Z" fill="#00E676"/>
<path d="M11.7434 0.526855H5.70806C2.93038 0.526855 0.678619 2.77861 0.678619 5.55629V11.5916C0.678619 14.3693 2.93038 16.6211 5.70806 16.6211H11.7434C14.5211 16.6211 16.7728 14.3693 16.7728 11.5916V5.55629C16.7728 2.77861 14.5211 0.526855 11.7434 0.526855Z" fill="#68C6E8"/>
<path d="M8.72569 3.54492L10.1447 6.62129L13.509 7.02018L11.0216 9.32037L11.6819 12.6433L8.72569 10.9885L5.76946 12.6433L6.42971 9.32037L3.94241 7.02018L7.30671 6.62129L8.72569 3.54492Z" fill="white"/>
</g>
<defs>
<clipPath id="clip0_2_606">
<rect width="16.0942" height="16.0942" fill="white" transform="translate(0.678619 0.526855)"/>
</clipPath>
</defs>
</svg>
