<svg width="15" height="16" viewBox="0 0 15 16" fill="none" xmlns="http://www.w3.org/2000/svg">
<g clip-path="url(#clip0_2_1939)">
<path d="M1.5 3.44995C2.32843 3.44995 3 2.77838 3 1.94995C3 1.12152 2.32843 0.449951 1.5 0.449951C0.671573 0.449951 0 1.12152 0 1.94995C0 2.77838 0.671573 3.44995 1.5 3.44995Z" fill="#333333"/>
<path d="M5 1.94995H15" stroke="#333333" stroke-width="3"/>
<path d="M1.5 9.44995C2.32843 9.44995 3 8.77838 3 7.94995C3 7.12152 2.32843 6.44995 1.5 6.44995C0.671573 6.44995 0 7.12152 0 7.94995C0 8.77838 0.671573 9.44995 1.5 9.44995Z" fill="#333333"/>
<path d="M5 7.94995H15" stroke="#333333" stroke-width="3"/>
<path d="M1.5 15.45C2.32843 15.45 3 14.7784 3 13.95C3 13.1215 2.32843 12.45 1.5 12.45C0.671573 12.45 0 13.1215 0 13.95C0 14.7784 0.671573 15.45 1.5 15.45Z" fill="#333333"/>
<path d="M5 13.95H15" stroke="#333333" stroke-width="3"/>
</g>
<defs>
<clipPath id="clip0_2_1939">
<rect width="15" height="15" fill="white" transform="translate(0 0.449951)"/>
</clipPath>
</defs>
</svg>
