<svg width="132" height="47" viewBox="0 0 132 47" fill="none" xmlns="http://www.w3.org/2000/svg">
<g clip-path="url(#clip0_2_3634)">
<path d="M121.488 1.52846H10.5176C10.1131 1.52846 9.71344 1.52846 9.31001 1.53067C8.9723 1.53288 8.63728 1.53929 8.29632 1.54468C7.55562 1.5534 6.81665 1.61856 6.08585 1.73961C5.35607 1.86329 4.64915 2.09646 3.98901 2.43124C3.32967 2.76885 2.72721 3.20755 2.2035 3.73141C1.67703 4.25379 1.23818 4.8576 0.903815 5.51961C0.568532 6.18031 0.336045 6.8883 0.214385 7.61914C0.0915684 8.34906 0.0254795 9.0874 0.0167118 9.82752C0.00647513 10.1657 0.0053941 10.5051 0 10.8433V36.3404C0.0053941 36.6829 0.00647513 37.0147 0.0167118 37.3573C0.0254822 38.0974 0.0915711 38.8357 0.214385 39.5656C0.335709 40.2969 0.56821 41.0053 0.903815 41.6662C1.23802 42.3261 1.67694 42.9274 2.2035 43.4469C2.72523 43.9731 3.32807 44.4121 3.98901 44.7471C4.64915 45.0828 5.35599 45.3174 6.08585 45.443C6.81677 45.563 7.55566 45.6282 8.29632 45.638C8.63728 45.6455 8.9723 45.6498 9.31001 45.6498C9.71343 45.652 10.1131 45.652 10.5176 45.652H121.488C121.885 45.652 122.288 45.652 122.684 45.6498C123.02 45.6498 123.365 45.6455 123.701 45.638C124.44 45.6287 125.178 45.5635 125.907 45.443C126.639 45.3165 127.349 45.082 128.012 44.7471C128.672 44.4119 129.275 43.9729 129.796 43.4469C130.321 42.9254 130.761 42.3245 131.099 41.6662C131.433 41.0048 131.663 40.2964 131.782 39.5656C131.905 38.8356 131.974 38.0975 131.987 37.3573C131.991 37.0147 131.991 36.6829 131.991 36.3404C132 35.9396 132 35.5411 132 35.1338V12.0477C132 11.6437 132 11.243 131.991 10.8433C131.991 10.5051 131.991 10.1657 131.987 9.82748C131.974 9.08729 131.905 8.34912 131.782 7.6191C131.662 6.88868 131.432 6.18074 131.099 5.51957C130.419 4.19264 129.339 3.11253 128.012 2.43114C127.349 2.09718 126.639 1.86407 125.907 1.73951C125.178 1.61793 124.44 1.55274 123.701 1.54452C123.365 1.53914 123.02 1.53268 122.684 1.53053C122.288 1.52832 121.885 1.52846 121.488 1.52846Z" fill="#A6A6A6"/>
<path d="M9.3154 44.6868C8.97931 44.6868 8.65134 44.6825 8.31789 44.675C7.62711 44.666 6.93795 44.6058 6.25606 44.4951C5.62023 44.3855 5.00428 44.1818 4.42853 43.8907C3.85806 43.6019 3.33774 43.2233 2.88752 42.7693C2.43077 42.3206 2.05051 41.8003 1.7618 41.2288C1.46991 40.6536 1.26791 40.0371 1.16283 39.4008C1.04935 38.717 0.987947 38.0256 0.979162 37.3325C0.972168 37.0998 0.963013 36.3253 0.963013 36.3253V10.8433C0.963013 10.8433 0.972764 10.0806 0.979217 9.85654C0.987629 9.16456 1.04867 8.47421 1.16181 7.79149C1.26709 7.15337 1.46925 6.53509 1.7613 5.95804C2.04894 5.38699 2.42709 4.86624 2.88108 4.41598C3.33457 3.96144 3.85655 3.58086 4.42799 3.28811C5.00242 2.99787 5.6172 2.7956 6.25175 2.68809C6.93588 2.5762 7.62743 2.51571 8.3206 2.50712L9.31594 2.49365H122.679L123.686 2.50766C124.373 2.51582 125.058 2.57578 125.736 2.68701C126.377 2.79587 126.998 2.99955 127.579 3.29134C128.724 3.88132 129.655 4.81473 130.243 5.96074C130.53 6.5338 130.729 7.14704 130.833 7.77964C130.948 8.46797 131.012 9.16374 131.025 9.8614C131.028 10.1738 131.028 10.5094 131.028 10.8433C131.037 11.257 131.037 11.6507 131.037 12.0476V35.1338C131.037 35.5346 131.037 35.9256 131.028 36.3198C131.028 36.6786 131.028 37.0072 131.024 37.3454C131.011 38.0306 130.948 38.714 130.835 39.39C130.733 40.0309 130.532 40.6522 130.24 41.2321C129.949 41.7974 129.571 42.3132 129.12 42.7607C128.669 43.2171 128.148 43.598 127.576 43.8886C126.996 44.182 126.376 44.3864 125.736 44.4951C125.054 44.6064 124.365 44.6666 123.674 44.675C123.351 44.6825 123.013 44.6868 122.684 44.6868L121.488 44.689L9.3154 44.6868Z" fill="black"/>
<path d="M27.3223 23.9219C27.3341 23.0012 27.5787 22.0984 28.0332 21.2976C28.4877 20.4968 29.1373 19.824 29.9217 19.3418C29.4234 18.6301 28.7661 18.0444 28.0018 17.6313C27.2376 17.2181 26.3875 16.9888 25.5191 16.9617C23.6668 16.7672 21.871 18.0701 20.9271 18.0701C19.9649 18.0701 18.5116 16.981 16.9466 17.0132C15.9343 17.0459 14.9478 17.3402 14.0831 17.8676C13.2184 18.3949 12.5051 19.1373 12.0126 20.0223C9.87921 23.7159 11.4705 29.1442 13.5141 32.1298C14.5366 33.5918 15.7315 35.2249 17.2951 35.167C18.8251 35.1035 19.3966 34.1913 21.2435 34.1913C23.0732 34.1913 23.6094 35.167 25.2047 35.1302C26.8465 35.1035 27.8809 33.6617 28.8675 32.1859C29.6021 31.1441 30.1674 29.9928 30.5424 28.7745C29.5886 28.3711 28.7746 27.6958 28.202 26.8329C27.6293 25.9699 27.3234 24.9575 27.3223 23.9219Z" fill="white"/>
<path d="M24.309 14.9979C25.2042 13.9233 25.6452 12.542 25.5384 11.1475C24.1708 11.2911 22.9075 11.9448 22.0002 12.9782C21.5566 13.483 21.2168 14.0703 21.0004 14.7066C20.7839 15.3428 20.6949 16.0154 20.7386 16.6861C21.4226 16.6931 22.0994 16.5448 22.7179 16.2524C23.3363 15.96 23.8804 15.5311 24.309 14.9979Z" fill="white"/>
<path d="M46.6631 31.4659H41.4418L40.1879 35.1684H37.9763L42.9219 21.4702H45.2196L50.1652 35.1684H47.9159L46.6631 31.4659ZM41.9825 29.7574H46.1213L44.0811 23.7486H44.024L41.9825 29.7574Z" fill="white"/>
<path d="M60.846 30.1751C60.846 33.2786 59.1849 35.2726 56.6782 35.2726C56.0432 35.3058 55.4117 35.1595 54.8559 34.8505C54.3002 34.5415 53.8427 34.0822 53.5359 33.5253H53.4885V38.472H51.4385V25.181H53.4228V26.8421H53.4605C53.7814 26.2879 54.2466 25.831 54.8066 25.5201C55.3666 25.2092 56.0003 25.0559 56.6405 25.0765C59.1752 25.0766 60.846 27.0802 60.846 30.1751ZM58.7389 30.1751C58.7389 28.1531 57.694 26.8238 56.0997 26.8238C54.5334 26.8238 53.4799 28.1811 53.4799 30.1751C53.4799 32.1874 54.5334 33.535 56.0997 33.535C57.694 33.535 58.7389 32.2154 58.7389 30.1751Z" fill="white"/>
<path d="M71.8381 30.1751C71.8381 33.2786 70.177 35.2726 67.6703 35.2726C67.0353 35.3058 66.4038 35.1595 65.848 34.8505C65.2923 34.5415 64.8348 34.0822 64.528 33.5253H64.4805V38.4719H62.4306V25.181H64.4148V26.8421H64.4525C64.7735 26.2879 65.2387 25.831 65.7987 25.5201C66.3586 25.2092 66.9924 25.0559 67.6325 25.0765C70.1673 25.0765 71.8381 27.0802 71.8381 30.1751ZM69.731 30.1751C69.731 28.1531 68.6861 26.8238 67.0918 26.8238C65.5255 26.8238 64.472 28.1811 64.472 30.1751C64.472 32.1874 65.5255 33.535 67.0918 33.535C68.6861 33.535 69.731 32.2154 69.731 30.1751Z" fill="white"/>
<path d="M79.103 31.3516C79.2549 32.71 80.5745 33.6019 82.3778 33.6019C84.1057 33.6019 85.3488 32.71 85.3488 31.4851C85.3488 30.4219 84.599 29.7853 82.8237 29.349L81.0485 28.9213C78.5331 28.3138 77.3654 27.1374 77.3654 25.2285C77.3654 22.8651 79.4251 21.2417 82.3498 21.2417C85.2443 21.2417 87.2285 22.8651 87.2953 25.2285H85.2259C85.1021 23.8615 83.972 23.0364 82.3206 23.0364C80.6692 23.0364 79.5392 23.8712 79.5392 25.0864C79.5392 26.0548 80.261 26.6246 82.0266 27.0609L83.5358 27.4315C86.3463 28.0961 87.514 29.2251 87.514 31.2287C87.514 33.7914 85.4726 35.3965 82.2258 35.3965C79.188 35.3965 77.137 33.8291 77.0045 31.3515L79.103 31.3516Z" fill="white"/>
<path d="M91.9382 22.8179V25.1813H93.8374V26.8047H91.9382V32.3105C91.9382 33.1658 92.3185 33.5644 93.1533 33.5644C93.3788 33.5604 93.6039 33.5446 93.8277 33.5169V35.1306C93.4523 35.2008 93.0708 35.2325 92.6891 35.2254C90.6671 35.2254 89.8786 34.466 89.8786 32.5291V26.8047H88.4265V25.1813H89.8785V22.8179H91.9382Z" fill="white"/>
<path d="M94.9373 30.1755C94.9373 27.0332 96.788 25.0586 99.6739 25.0586C102.569 25.0586 104.412 27.0331 104.412 30.1755C104.412 33.3264 102.579 35.2923 99.6739 35.2923C96.7696 35.2923 94.9373 33.3264 94.9373 30.1755ZM102.323 30.1755C102.323 28.0199 101.335 26.7477 99.6739 26.7477C98.0128 26.7477 97.026 28.0296 97.026 30.1755C97.026 32.3396 98.0128 33.6021 99.6739 33.6021C101.335 33.6021 102.323 32.3396 102.323 30.1755Z" fill="white"/>
<path d="M106.102 25.1814H108.057V26.8813H108.104C108.237 26.3504 108.548 25.8812 108.985 25.5526C109.423 25.224 109.96 25.0561 110.507 25.0769C110.743 25.0761 110.978 25.1018 111.209 25.1534V27.0709C110.911 26.9798 110.6 26.9379 110.288 26.947C109.99 26.9349 109.693 26.9874 109.418 27.1009C109.142 27.2144 108.894 27.3862 108.691 27.6045C108.488 27.8228 108.335 28.0824 108.242 28.3656C108.149 28.6487 108.118 28.9486 108.152 29.2448V35.1685H106.102L106.102 25.1814Z" fill="white"/>
<path d="M120.661 32.2351C120.385 34.0481 118.619 35.2923 116.36 35.2923C113.455 35.2923 111.652 33.3458 111.652 30.2229C111.652 27.0903 113.465 25.0586 116.274 25.0586C119.037 25.0586 120.775 26.9567 120.775 29.9848V30.6871H113.721V30.811C113.688 31.1786 113.734 31.5488 113.856 31.8972C113.978 32.2456 114.172 32.5642 114.426 32.8317C114.68 33.0993 114.988 33.3097 115.33 33.449C115.671 33.5884 116.039 33.6534 116.408 33.6398C116.892 33.6852 117.378 33.573 117.794 33.3199C118.209 33.0668 118.532 32.6864 118.714 32.2351L120.661 32.2351ZM113.731 29.2544H118.724C118.742 28.9239 118.692 28.5932 118.576 28.283C118.461 27.9728 118.283 27.6898 118.053 27.4518C117.823 27.2138 117.546 27.0259 117.24 26.8999C116.934 26.7739 116.605 26.7126 116.274 26.7197C115.94 26.7177 115.609 26.7818 115.3 26.9084C114.991 27.035 114.711 27.2215 114.474 27.4571C114.238 27.6928 114.05 27.9729 113.923 28.2814C113.795 28.5899 113.73 28.9206 113.731 29.2544Z" fill="white"/>
<path d="M40.5256 13.9416H41.4057C41.5572 13.9605 41.7109 13.9477 41.8573 13.9042C42.0036 13.8607 42.1394 13.7874 42.256 13.6888C42.3726 13.5902 42.4675 13.4686 42.5347 13.3315C42.6019 13.1944 42.6401 13.0449 42.6466 12.8924C42.6466 12.2854 42.1899 11.8932 41.4154 11.8932C41.2601 11.8716 41.1022 11.8812 40.9507 11.9216C40.7993 11.962 40.6575 12.0323 40.5337 12.1284C40.4099 12.2245 40.3066 12.3444 40.2299 12.4811C40.1532 12.6178 40.1046 12.7684 40.0871 12.9242H39.1208C39.1375 12.6414 39.2121 12.3652 39.3401 12.1125C39.4682 11.8599 39.6468 11.6364 39.865 11.4558C40.0832 11.2752 40.3362 11.1415 40.6083 11.0629C40.8804 10.9844 41.1657 10.9626 41.4466 10.9991C42.7425 10.9991 43.655 11.7247 43.655 12.769C43.658 13.1189 43.5409 13.4592 43.3233 13.7332C43.1057 14.0072 42.8007 14.1982 42.4592 14.2745V14.352C42.8641 14.37 43.2453 14.5475 43.5196 14.8457C43.794 15.144 43.9391 15.5387 43.9232 15.9436C43.8932 16.2347 43.8055 16.5169 43.665 16.7737C43.5246 17.0304 43.3343 17.2565 43.1054 17.4388C42.8764 17.621 42.6134 17.7557 42.3317 17.835C42.05 17.9143 41.7553 17.9365 41.4649 17.9004C41.1739 17.9401 40.8779 17.9208 40.5945 17.8436C40.3111 17.7665 40.0462 17.633 39.8155 17.4513C39.5848 17.2695 39.393 17.0432 39.2517 16.7857C39.1103 16.5283 39.0222 16.245 38.9927 15.9528H39.974C40.0333 16.5825 40.6118 16.9886 41.4649 16.9886C42.3181 16.9886 42.875 16.5324 42.875 15.8893C42.875 15.237 42.3504 14.8352 41.4337 14.8352H40.5256V13.9416Z" fill="white"/>
<path d="M45.0381 16.3365C45.0381 15.4424 45.7049 14.9269 46.8856 14.8537L48.231 14.7761V14.3474C48.231 13.8228 47.8852 13.5265 47.2141 13.5265C46.6669 13.5265 46.2888 13.7274 46.1789 14.0786H45.2299C45.33 13.2255 46.1337 12.6782 47.2605 12.6782C48.5057 12.6782 49.2081 13.2982 49.2081 14.3474V17.7412H48.2634V17.0432H48.1858C48.0284 17.2936 47.8073 17.4977 47.5452 17.6347C47.2831 17.7717 46.9893 17.8367 46.6938 17.8231C46.4853 17.8447 46.2746 17.8225 46.0752 17.7578C45.8758 17.693 45.6922 17.5872 45.5362 17.4471C45.3802 17.3071 45.2552 17.1359 45.1695 16.9446C45.0837 16.7533 45.0389 16.5461 45.0381 16.3365ZM48.231 15.9121V15.4968L47.018 15.5744C46.334 15.6201 46.0237 15.8528 46.0237 16.2907C46.0237 16.7378 46.4115 16.9979 46.9448 16.9979C47.1011 17.0137 47.2589 16.998 47.4089 16.9515C47.559 16.9051 47.6981 16.829 47.8181 16.7277C47.9381 16.6264 48.0365 16.5019 48.1075 16.3618C48.1784 16.2217 48.2204 16.0688 48.231 15.9121Z" fill="white"/>
<path d="M51.8096 13.5991V17.7411H50.8293V12.7739H54.0998V13.599L51.8096 13.5991Z" fill="white"/>
<path d="M60.0408 15.2552C60.0408 16.8334 59.2425 17.8228 57.9886 17.8228C57.6808 17.8438 57.3734 17.7765 57.1026 17.6287C56.8318 17.4809 56.6089 17.2588 56.46 16.9885H56.3825V19.3923H55.4022V12.7738H56.3459V13.5947H56.4191C56.5706 13.315 56.7964 13.0826 57.0717 12.9232C57.347 12.7638 57.6609 12.6836 57.9789 12.6914C59.2425 12.6914 60.0408 13.6765 60.0408 15.2552ZM59.0325 15.2552C59.0325 14.206 58.5359 13.572 57.7053 13.572C56.8802 13.572 56.3642 14.2195 56.3642 15.2595C56.3642 16.2948 56.8802 16.9427 57.701 16.9427C58.5359 16.9427 59.0325 16.3088 59.0325 15.2552Z" fill="white"/>
<path d="M61.3464 19.5201V18.6761C61.4524 18.6896 61.5593 18.6957 61.6663 18.6944C61.8751 18.7099 62.0823 18.6477 62.2481 18.5197C62.4139 18.3918 62.5267 18.2072 62.5647 18.0012L62.6379 17.7594L60.84 12.7739H61.9076L63.1529 16.7193H63.2304L64.4714 12.7739H65.511L63.6592 17.9463C63.2348 19.1549 62.7651 19.5427 61.7525 19.5427C61.6706 19.5427 61.4379 19.5336 61.3464 19.5201Z" fill="white"/>
<path d="M66.2747 16.3313H67.2507C67.3465 16.7693 67.757 16.9976 68.3311 16.9976C68.9839 16.9976 69.3847 16.71 69.3847 16.2629C69.3847 15.7841 69.0249 15.5557 68.3311 15.5557H67.5878V14.7941H68.3182C68.9107 14.7941 69.2123 14.5663 69.2123 14.151C69.2123 13.7864 68.9204 13.5079 68.3182 13.5079C67.7699 13.5079 67.3692 13.7406 67.3056 14.1327H66.3609C66.4315 13.6822 66.6761 13.2773 67.0422 13.0053C67.4082 12.7332 67.8664 12.6157 68.3182 12.6779C69.4988 12.6779 70.1743 13.2117 70.1743 14.0509C70.1798 14.2845 70.1049 14.513 69.9622 14.6981C69.8194 14.8832 69.6175 15.0137 69.3901 15.0678V15.1453C69.6608 15.1803 69.9093 15.3134 70.0884 15.5194C70.2675 15.7254 70.3648 15.99 70.3617 16.263C70.3617 17.2072 69.5581 17.832 68.3311 17.832C67.2464 17.8319 66.3652 17.3348 66.2747 16.3313Z" fill="white"/>
<path d="M71.7734 17.7411V12.7739H72.7451V16.1904H72.8227L75.1118 12.7739H76.0835V17.7411H75.1118V14.3063H75.0385L72.7451 17.7411L71.7734 17.7411Z" fill="white"/>
<path d="M81.4362 13.599H79.872V17.741H78.8907V13.599H77.3265V12.7739H81.4362V13.599Z" fill="white"/>
<path d="M86.7168 16.3997C86.5832 16.8536 86.2944 17.2462 85.9008 17.5089C85.5073 17.7715 85.0339 17.8876 84.5634 17.8367C84.2362 17.8453 83.911 17.7827 83.6104 17.653C83.3098 17.5234 83.041 17.3299 82.8227 17.0859C82.6044 16.842 82.4418 16.5535 82.3462 16.2404C82.2505 15.9273 82.2242 15.5972 82.2689 15.2729C82.2253 14.9476 82.2522 14.6167 82.3476 14.3027C82.443 13.9887 82.6047 13.6988 82.8219 13.4528C83.0391 13.2067 83.3065 13.0102 83.6063 12.8765C83.906 12.7428 84.2309 12.675 84.5591 12.6778C85.9412 12.6778 86.7761 13.6221 86.7761 15.1818V15.5239H83.2686V15.5788C83.2531 15.7611 83.2759 15.9447 83.3355 16.1177C83.3951 16.2907 83.4903 16.4493 83.6149 16.5833C83.7395 16.7173 83.8907 16.8238 84.0589 16.8959C84.2271 16.9679 84.4085 17.004 84.5915 17.0018C84.8258 17.0298 85.0631 16.9875 85.2734 16.8803C85.4836 16.7731 85.6572 16.6058 85.7721 16.3996L86.7168 16.3997ZM83.2686 14.7989H85.7764C85.7888 14.6323 85.7662 14.4649 85.71 14.3075C85.6539 14.1502 85.5655 14.0063 85.4504 13.8851C85.3354 13.7639 85.1963 13.6681 85.0421 13.6039C84.8878 13.5397 84.7218 13.5084 84.5548 13.5121C84.3852 13.5098 84.2169 13.5416 84.0597 13.6054C83.9026 13.6693 83.7599 13.764 83.64 13.8839C83.5201 14.0039 83.4254 14.1467 83.3617 14.3038C83.2979 14.461 83.2662 14.6293 83.2686 14.7989Z" fill="white"/>
<path d="M90.8728 12.7739H93.1124C94.084 12.7739 94.6539 13.2662 94.6539 14.037C94.6554 14.2815 94.5729 14.5192 94.4201 14.7102C94.2674 14.9012 94.0536 15.0339 93.8147 15.0862V15.1637C94.1048 15.1821 94.3768 15.3111 94.5744 15.5242C94.7721 15.7373 94.8804 16.0182 94.8769 16.3088C94.8769 17.1755 94.2252 17.741 93.135 17.741H90.8728V12.7739ZM91.8445 13.5264V14.8126H92.8161C93.4086 14.8126 93.6919 14.5847 93.6919 14.1646C93.6919 13.7774 93.4453 13.5264 92.925 13.5264L91.8445 13.5264ZM91.8445 15.5333V16.9886H93.0069C93.5864 16.9886 93.8967 16.7328 93.8967 16.2631C93.8967 15.766 93.5455 15.5333 92.884 15.5333L91.8445 15.5333Z" fill="white"/>
</g>
<defs>
<clipPath id="clip0_2_3634">
<rect width="132" height="44.1235" fill="white" transform="translate(0 1.52832)"/>
</clipPath>
</defs>
</svg>
