<svg width="32" height="32" viewBox="0 0 32 32" fill="none" xmlns="http://www.w3.org/2000/svg">
<g clip-path="url(#clip0_2_3675)">
<path d="M16 31.0898C24.2843 31.0898 31 24.3741 31 16.0898C31 7.80557 24.2843 1.08984 16 1.08984C7.71573 1.08984 1 7.80557 1 16.0898C1 24.3741 7.71573 31.0898 16 31.0898Z" stroke="#7F7F7F" stroke-miterlimit="10"/>
<path d="M16 15.8797C16.8564 15.8797 17.6935 15.6258 18.4056 15.15C19.1177 14.6742 19.6727 13.998 20.0004 13.2067C20.3281 12.4155 20.4139 11.5449 20.2468 10.705C20.0797 9.86505 19.6673 9.09352 19.0618 8.48796C18.4562 7.8824 17.6847 7.47 16.8447 7.30293C16.0048 7.13585 15.1342 7.2216 14.343 7.54933C13.5518 7.87706 12.8755 8.43204 12.3997 9.14411C11.9239 9.85617 11.67 10.6933 11.67 11.5497C11.6726 12.6973 12.1297 13.7971 12.9411 14.6086C13.7526 15.42 14.8524 15.8771 16 15.8797ZM16 9.71973C16.3619 9.71973 16.7157 9.82706 17.0167 10.0281C17.3176 10.2292 17.5522 10.515 17.6907 10.8494C17.8292 11.1838 17.8654 11.5518 17.7948 11.9067C17.7242 12.2617 17.5499 12.5878 17.294 12.8437C17.0381 13.0997 16.712 13.274 16.357 13.3446C16.002 13.4152 15.6341 13.3789 15.2997 13.2404C14.9653 13.1019 14.6795 12.8674 14.4784 12.5664C14.2773 12.2655 14.17 11.9117 14.17 11.5497C14.17 11.0644 14.3628 10.5989 14.706 10.2557C15.0492 9.91253 15.5146 9.71973 16 9.71973Z" fill="#7F7F7F"/>
<path d="M20.82 16.5199C20.7284 16.3829 20.6106 16.2654 20.4734 16.1742C20.3363 16.0829 20.1824 16.0196 20.0207 15.988C19.859 15.9564 19.6926 15.9571 19.5312 15.9901C19.3697 16.023 19.2164 16.0875 19.08 16.1799C18.1598 16.796 17.0774 17.1249 15.97 17.1249C14.8626 17.1249 13.7802 16.796 12.86 16.1799C12.5842 15.9956 12.2464 15.9284 11.921 15.9931C11.5957 16.0578 11.3093 16.2491 11.125 16.5249C10.9407 16.8007 10.8734 17.1385 10.9381 17.4638C11.0028 17.7892 11.1942 18.0756 11.47 18.2599C12.2188 18.762 13.0472 19.1339 13.92 19.3599L11.7 21.8699C11.591 21.9933 11.5074 22.137 11.4539 22.2928C11.4004 22.4486 11.3782 22.6133 11.3884 22.7777C11.3986 22.942 11.4411 23.1028 11.5134 23.2507C11.5858 23.3987 11.6865 23.5309 11.81 23.6399C12.0593 23.86 12.3858 23.9721 12.7178 23.9515C12.8821 23.9413 13.0429 23.8988 13.1908 23.8264C13.3387 23.7541 13.471 23.6533 13.58 23.5299L15.93 20.8799L18.08 23.4999C18.3001 23.7169 18.5927 23.8447 18.9015 23.8586C19.2103 23.8724 19.5132 23.7714 19.7519 23.575C19.9906 23.3786 20.148 23.1008 20.1938 22.7951C20.2396 22.4894 20.1706 22.1776 20 21.9199L17.93 19.3899C18.8396 19.1655 19.7027 18.783 20.48 18.2599C20.6169 18.1683 20.7344 18.0505 20.8257 17.9133C20.917 17.7762 20.9802 17.6223 21.0118 17.4606C21.0434 17.2989 21.0427 17.1325 21.0098 16.9711C20.9769 16.8097 20.9124 16.6563 20.82 16.5199Z" fill="#7F7F7F"/>
</g>
<defs>
<clipPath id="clip0_2_3675">
<rect width="31" height="31" fill="white" transform="translate(0.5 0.589844)"/>
</clipPath>
</defs>
</svg>
