<svg width="31" height="32" viewBox="0 0 31 32" fill="none" xmlns="http://www.w3.org/2000/svg">
<g clip-path="url(#clip0_2_3672)">
<path d="M15.5 31.0898C23.7843 31.0898 30.5 24.3741 30.5 16.0898C30.5 7.80557 23.7843 1.08984 15.5 1.08984C7.21573 1.08984 0.5 7.80557 0.5 16.0898C0.5 24.3741 7.21573 31.0898 15.5 31.0898Z" stroke="#7F7F7F" stroke-miterlimit="10"/>
<path d="M16.12 21.3498C16.2141 21.3568 16.3087 21.3425 16.3966 21.3081C16.4845 21.2736 16.5636 21.2198 16.6279 21.1507C16.6922 21.0816 16.7402 20.9989 16.7682 20.9087C16.7963 20.8185 16.8037 20.7232 16.79 20.6298C16.79 19.1098 17.36 18.2998 18.42 19.3598C19.48 20.4198 19.84 21.3598 21.27 21.3598H23.8C25.8 21.3598 24.02 19.3598 22.61 18.0598C21.2 16.7598 21.21 16.7898 22.36 15.2998C23.79 13.4498 25.65 11.0698 24 11.0698H20.87C20.26 11.0698 20.21 11.4298 20 11.9398C19.21 13.7998 17.72 16.1998 17.15 15.8298C16.58 15.4598 16.83 14.1398 16.87 11.8798C16.902 11.7395 16.9034 11.5939 16.8741 11.453C16.8447 11.3121 16.7853 11.1792 16.6998 11.0633C16.6144 10.9475 16.5049 10.8515 16.379 10.7818C16.253 10.7122 16.1135 10.6706 15.97 10.6598C13.48 10.0798 11.32 11.2198 12.2 11.3798C13.44 11.6098 13.32 14.0898 13.03 15.2498C12.53 17.2498 10.63 13.6498 9.83997 11.8398C9.80776 11.6207 9.69413 11.4218 9.52175 11.2828C9.34937 11.1438 9.13092 11.0748 8.90997 11.0898H6.32997C5.82997 11.0898 5.58997 11.3198 5.75997 11.7798C6.89984 14.471 8.4222 16.9836 10.28 19.2398C12.5 21.5598 14.62 21.3498 16.12 21.3498Z" fill="#7F7F7F"/>
</g>
<defs>
<clipPath id="clip0_2_3672">
<rect width="31" height="31" fill="white" transform="translate(0 0.589844)"/>
</clipPath>
</defs>
</svg>
