<svg width="31" height="32" viewBox="0 0 31 32" fill="none" xmlns="http://www.w3.org/2000/svg">
<g clip-path="url(#clip0_2_3680)">
<path d="M15.5 31.0898C23.7843 31.0898 30.5 24.3741 30.5 16.0898C30.5 7.80557 23.7843 1.08984 15.5 1.08984C7.21573 1.08984 0.5 7.80557 0.5 16.0898C0.5 24.3741 7.21573 31.0898 15.5 31.0898Z" stroke="#7F7F7F" stroke-miterlimit="10"/>
<path d="M15.5 10C7.82 10 7.69 10.69 7.69 16.09C7.69 21.49 7.82 22.18 15.5 22.18C23.18 22.18 23.31 21.49 23.31 16.09C23.31 10.69 23.18 10 15.5 10ZM18 16.35L14.5 17.99C14.4407 18.0262 14.3724 18.0449 14.303 18.0441C14.2335 18.0433 14.1657 18.0229 14.1073 17.9853C14.0489 17.9478 14.0022 17.8945 13.9726 17.8317C13.943 17.7689 13.9317 17.699 13.94 17.63V14.59C13.9317 14.521 13.943 14.4511 13.9726 14.3883C14.0022 14.3255 14.0489 14.2722 14.1073 14.2347C14.1657 14.1971 14.2335 14.1767 14.303 14.1759C14.3724 14.1751 14.4407 14.1938 14.5 14.23L18 15.83C18.31 15.97 18.31 16.21 18 16.35Z" fill="#7F7F7F" stroke="#7F7F7F"/>
</g>
<defs>
<clipPath id="clip0_2_3680">
<rect width="31" height="31" fill="white" transform="translate(0 0.589844)"/>
</clipPath>
</defs>
</svg>
