<svg width="25" height="24" viewBox="0 0 25 24" fill="none" xmlns="http://www.w3.org/2000/svg">
<path d="M15.088 6.74167C15.1511 5.19583 13.7315 4 12.0912 4C10.4508 4 8.99971 5.225 9.09435 6.74167C9.12589 7.0625 9.44134 8.57917 9.44134 8.57917C9.6937 9.89167 10.6401 11 12.0912 11C13.5423 11 14.4886 9.89167 14.741 8.55C14.741 8.55 15.0564 7.03333 15.088 6.74167Z" stroke="black" stroke-width="2"/>
<path d="M12.09 19H5.08997L5.42475 16.4375C5.57693 15.5937 6.30736 15.0938 7.1291 14.9063L12.09 14L17.0509 14.9063C17.8726 15.0938 18.603 15.5937 18.7248 16.4375L19.09 19H16.09" stroke="black" stroke-width="2"/>
</svg>
