<svg width="25" height="25" viewBox="0 0 25 25" fill="none" xmlns="http://www.w3.org/2000/svg">
<g id="switch-arrow.svg">
<path id="Vector" d="M21.1833 17.8691C21.3796 17.6727 21.3796 17.3542 21.1833 17.1578L17.9825 13.9572C17.7861 13.7607 17.4676 13.7607 17.2713 13.9572C17.0748 14.1535 17.0748 14.472 17.2713 14.6684L20.1163 17.5135L17.2713 20.3585C17.0748 20.555 17.0748 20.8734 17.2713 21.0698C17.4676 21.2662 17.7861 21.2662 17.9825 21.0698L21.1833 17.8691ZM4.73337 18.0164H20.8276V17.0105H4.73337V18.0164Z" fill="#4F4F4F"/>
<path id="Vector_2" d="M4.37774 8.81613C4.18133 8.61972 4.18133 8.30128 4.37774 8.10487L7.57845 4.90415C7.77486 4.70773 8.09331 4.70773 8.28972 4.90415C8.48614 5.10056 8.48614 5.419 8.28972 5.61541L5.44464 8.4605L8.28972 11.3055C8.48614 11.502 8.48614 11.8205 8.28972 12.0168C8.09331 12.2133 7.77486 12.2133 7.57845 12.0168L4.37774 8.81613ZM20.8276 8.96344H4.73337V7.95755H20.8276V8.96344Z" fill="#4F4F4F"/>
</g>
</svg>
